PathFileType	4	(X/Y/Z)	C:/Users/opensim2020/Desktop/walking_exp_matlab/subject02_walking05_straight_04.trc																																																																																																																												
DataRate	CameraRate	NumFrames	NumMarkers	Units	OrigDataRate	OrigDataStartFrame	OrigNumFrames																																																																																																																								
100	100	8	42	mm	100	2928	220																																																																																																																								
Frame#	Time	LFHD			RFHD			LBHD			RBHD			C7			T10			CLAV			STRN			RBAK			LSHO			LUPA			LELB			LFRM			LWRA			LWRB			LFIN			RSHO			RUPA			RELB			RFRM			RWRA			RWRB			RFIN			LASI			RASI			LPSI			RPSI			LTHI			LKNE			LTIB			LANK			LHEE			LTOE			RTHI			RKNE			RTIB			RANK			RHEE			RTOE			*39			*40			*41		
		X1	Y1	Z1	X2	Y2	Z2	X3	Y3	Z3	X4	Y4	Z4	X5	Y5	Z5	X6	Y6	Z6	X7	Y7	Z7	X8	Y8	Z8	X9	Y9	Z9	X10	Y10	Z10	X11	Y11	Z11	X12	Y12	Z12	X13	Y13	Z13	X14	Y14	Z14	X15	Y15	Z15	X16	Y16	Z16	X17	Y17	Z17	X18	Y18	Z18	X19	Y19	Z19	X20	Y20	Z20	X21	Y21	Z21	X22	Y22	Z22	X23	Y23	Z23	X24	Y24	Z24	X25	Y25	Z25	X26	Y26	Z26	X27	Y27	Z27	X28	Y28	Z28	X29	Y29	Z29	X30	Y30	Z30	X31	Y31	Z31	X32	Y32	Z32	X33	Y33	Z33	X34	Y34	Z34	X35	Y35	Z35	X36	Y36	Z36	X37	Y37	Z37	X38	Y38	Z38	X39	Y39	Z39	X40	Y40	Z40	X41	Y41	Z41	X42	Y42	Z42
																																																																																																																															
193	1.92	825.57019	1715.49219	-1471.96997	790.25873	1693.71387	-1333.43274	687.36072	1669.80664	-1512.56067	641.73578	1649.79919	-1376.7511	594.99512	1524.15723	-1437.06628	545.80469	1242.5946	-1416.4353	732.83112	1452.51294	-1449.87012	787.55322	1284.68005	-1440.78784	541.79266	1346.03613	-1362.58521	659.61792	1491.04407	-1618.5553	648.37811	1286.62842	-1693.09216	646.89044	1147.16589	-1700.78027	653.92017	1017.69659	-1718.04993	708.19818	887.03992	-1691.5946	663.39716	894.70129	-1726.27856	674.05872	826.59412	-1725.25208	677.32819	1494.58032	-1252.25745	644.39777	1311.01379	-1159.07422	655.18359	1164.91162	-1131.78992	695.49878	1051.79248	-1107.8689	762.21851	934.005	-1118.57129	713.60248	923.45679	-1092.3656	759.69177	868.63226	-1082.62305	772.56171	982.03406	-1569.24585	799.53241	980.69183	-1312.13477	572.61798	1023.83728	-1463.46045	578.75769	1029.44763	-1348.64453	742.33838	672.70013	-1628.20471	743.09723	488.34439	-1614.6488	601.47083	372.08505	-1592.38818	481.80075	185.73198	-1559.50549	455.30087	173.60413	-1497.79639	567.90814	67.02852	-1610.06689	752.10809	671.17737	-1243.13318	763.00751	462.38345	-1291.68359	722.526	277.11502	-1290.51563	703.94385	86.7039	-1336.63989	670.6637	34.60229	-1394.55823	855.16418	32.21687	-1317.67053	721.53033	1799.00513	-1400.61609	-2845.83301	1033.73877	3356.84424	NaN	NaN	NaN
194	1.93	834.97327	1716.2644	-1470.99854	799.41376	1694.71228	-1332.57251	696.94312	1670.7749	-1511.95752	650.9884	1650.90808	-1376.13977	603.27911	1525.63953	-1436.69861	554.2511	1244.0686	-1414.95947	741.81787	1453.48486	-1449.15295	795.9668	1285.60876	-1439.78503	549.90063	1348.06689	-1361.52844	668.40216	1491.97986	-1617.62817	654.97729	1287.45813	-1691.92664	650.85883	1148.28088	-1699.71509	656.23175	1018.68756	-1716.64783	708.83405	887.19379	-1690.3479	664.02344	895.49475	-1724.79138	673.47467	827.14404	-1723.44995	686.53058	1496.30994	-1251.72302	655.4621	1313.19519	-1157.15588	666.92767	1166.99585	-1129.41309	708.82263	1054.47742	-1106.30713	777.44342	937.79077	-1117.37561	728.95764	926.43341	-1090.61768	776.56873	872.54828	-1081.09009	781.80151	984.48328	-1566.99817	806.71777	981.57037	-1310.17383	580.90405	1025.06531	-1463.42126	586.35107	1030.18176	-1348.46155	755.32861	675.04706	-1627.42798	759.75146	490.19003	-1613.42725	621.45874	369.36447	-1591.98181	507.76959	179.20587	-1558.6687	481.42401	165.77881	-1497.0415	598.95795	64.71958	-1609.46155	755.18927	671.08099	-1243.09155	764.77692	462.28403	-1291.6001	723.76337	277.14957	-1290.43506	704.25226	86.96763	-1336.56897	670.66357	34.69474	-1394.59839	855.13147	32.20497	-1317.51953	730.89771	1800.04626	-1400.03284	-2845.06201	1033.9812	3360.15723	NaN	NaN	NaN
195	1.94	844.44836	1716.9563	-1470.22119	808.60663	1695.56152	-1331.84277	706.40631	1671.65222	-1511.3822	660.16101	1651.95972	-1375.59302	612.19031	1526.95483	-1436.01465	562.55408	1245.4375	-1413.67725	750.65887	1454.34253	-1448.43628	804.25159	1286.36169	-1438.6438	559.04761	1349.50513	-1359.64209	677.10822	1492.69763	-1616.80774	661.33673	1288.21436	-1691.11768	654.98254	1149.20178	-1698.5238	658.54266	1019.5943	-1715.59741	709.78564	887.34058	-1689.19092	664.84509	896.14288	-1723.31934	673.40692	827.59302	-1721.77222	696.04193	1497.99951	-1251.02917	666.44287	1315.06238	-1155.18933	678.43463	1168.98169	-1127.04846	722.22992	1057.125	-1104.51697	792.83936	941.37036	-1116.22192	744.54614	929.34296	-1089.00757	793.19904	876.27582	-1079.81567	791.30719	986.9624	-1564.51428	813.61768	982.19763	-1308.12683	589.2395	1026.24231	-1463.7843	593.86444	1030.72656	-1348.57703	768.11896	677.49402	-1626.854	775.99835	491.90985	-1612.34399	641.39545	366.10443	-1591.6936	534.40149	172.08432	-1557.91101	508.40369	157.37088	-1496.28455	630.31653	62.15054	-1609.1731	758.38525	670.93323	-1242.94812	767.08643	462.4971	-1291.45435	725.13684	277.19711	-1290.43933	704.41302	87.10027	-1336.63123	670.85382	34.95186	-1394.82129	855.04553	32.16418	-1317.38843	740.39343	1800.95239	-1399.53418	-2845.10938	1033.82581	3360.19458	NaN	NaN	NaN
196	1.95	853.86548	1717.44543	-1469.51501	817.71014	1696.28101	-1331.21448	715.82751	1672.38684	-1510.87061	669.38043	1652.91064	-1375.22974	621.15009	1528.04248	-1435.24951	570.78448	1246.66479	-1412.68408	759.51721	1455.13965	-1447.76819	812.6239	1287.12378	-1437.48901	567.00934	1351.23315	-1358.65796	685.76965	1493.14111	-1615.99927	667.48364	1289.07556	-1690.75378	659.28302	1149.86841	-1697.32935	661.14423	1020.09717	-1714.2074	711.02283	887.50421	-1688.18274	665.86499	896.75116	-1721.95996	673.81104	828.07288	-1720.3186	705.08026	1499.46521	-1250.49304	676.78003	1316.71704	-1153.52197	690.13495	1170.86206	-1124.87207	736.04749	1059.55286	-1102.82739	807.703	944.97565	-1115.32642	760.09448	932.18231	-1087.53149	809.77429	880.11719	-1078.76526	800.88666	989.29852	-1561.84155	820.39789	982.59784	-1305.99731	597.65625	1027.33972	-1464.40344	601.2511	1031.11987	-1349.03809	780.65741	679.76196	-1626.43201	791.66956	493.47946	-1611.32849	661.26819	362.2522	-1591.35437	561.40942	164.55788	-1557.4209	535.71613	148.57634	-1495.8501	662.13263	59.4118	-1609.15991	761.90161	670.95673	-1242.72314	768.58447	461.77747	-1291.35474	726.46234	277.22626	-1290.52393	704.58521	87.232	-1336.72437	670.89392	35.04314	-1394.91296	854.97369	32.12107	-1317.23792	749.81488	1801.73035	-1399.11877	-2845.22583	1033.87988	3360.29883	NaN	NaN	NaN
197	1.96	863.39441	1717.92029	-1468.96289	826.80511	1696.83691	-1330.6615	725.28314	1672.98083	-1510.62354	678.36841	1653.74573	-1374.81897	630.24524	1529.25549	-1434.79761	579.01819	1247.67822	-1411.89417	768.20966	1455.77625	-1447.06689	820.91553	1287.80237	-1436.15234	575.95081	1352.42456	-1356.8783	694.40216	1493.44202	-1615.31396	673.6814	1289.60156	-1690.14856	663.35022	1150.60022	-1696.56519	663.72595	1020.79211	-1713.32678	712.62274	887.64325	-1687.23645	667.18103	897.14496	-1720.58875	674.78583	828.46747	-1718.99768	714.16827	1500.73926	-1249.90088	686.48627	1318.11658	-1152.42175	701.81989	1172.48389	-1122.51416	749.12817	1061.61609	-1101.15527	822.85541	948.56628	-1114.42859	775.60242	934.91766	-1086.09839	826.32898	883.69879	-1077.78088	810.66345	991.3797	-1559.25183	827.33173	982.87604	-1303.76428	606.05603	1028.42761	-1465.22266	608.40057	1031.50415	-1349.78174	793.2226	682.03192	-1625.953	806.79242	494.88052	-1610.3761	680.97778	358.11566	-1591.05969	588.98364	156.69633	-1557.14368	563.67029	139.17624	-1495.6438	694.35303	56.60425	-1609.28149	765.59149	670.72614	-1242.52454	770.96436	461.85919	-1291.20093	727.47449	277.31754	-1290.64966	704.72583	87.34958	-1336.88354	670.76184	35.27912	-1394.85413	854.99615	32.18081	-1317.04529	759.31293	1802.49463	-1398.8302	-2845.92993	1033.66406	3357.01685	NaN	NaN	NaN
198	1.97	872.66138	1717.9668	-1468.3822	835.97314	1697.28369	-1330.14441	734.53607	1673.47302	-1510.17285	687.31763	1654.53223	-1374.57703	638.94702	1529.98193	-1434.20654	587.1579	1248.57349	-1411.36145	776.91278	1456.25708	-1446.44287	829.32709	1288.36658	-1434.85388	583.93512	1353.74255	-1356.26111	703.0285	1493.53296	-1614.73767	679.84515	1290.01331	-1689.599	667.78259	1150.99768	-1695.58777	666.76813	1021.034	-1712.07605	714.54126	887.75195	-1686.41626	668.59723	897.40198	-1719.12451	676.40448	828.65332	-1717.51953	723.11292	1501.85059	-1249.29858	696.48291	1319.48218	-1150.95178	712.89154	1174.01978	-1120.51733	762.25537	1063.81946	-1099.63049	837.67139	952.05011	-1113.69678	790.94739	937.60791	-1084.7334	842.61902	887.30853	-1077.05652	820.28094	993.05023	-1556.71521	833.86566	982.78253	-1301.5437	614.47961	1029.45569	-1466.22559	615.54059	1031.71741	-1350.68323	805.461	684.14056	-1625.82678	821.24487	496.15414	-1609.46887	700.70251	353.62662	-1590.73657	617.05817	148.51285	-1557.22522	592.14069	129.8213	-1495.95374	727.08838	54.2175	-1609.7262	769.73297	670.60974	-1242.43079	772.53198	461.48584	-1291.29993	728.26648	277.65808	-1290.85486	704.83795	87.51511	-1337.09424	670.82855	35.20544	-1395.03455	854.86707	32.05653	-1316.88855	768.74988	1802.85632	-1398.479	-2845.89111	1034.02832	3357.07007	NaN	NaN	NaN
199	1.98	882.08856	1718.0426	-1467.98096	844.8728	1697.48181	-1329.73279	743.77991	1673.84021	-1509.88245	696.31171	1655.19885	-1374.40417	647.68353	1530.6438	-1433.61243	595.22913	1249.32532	-1411.12891	785.54913	1456.70264	-1445.8429	837.68726	1288.83887	-1433.5387	592.22705	1354.81213	-1355.37085	711.66779	1493.53625	-1614.17651	685.8963	1290.32043	-1688.9939	672.28491	1151.35828	-1694.85828	669.89984	1021.26849	-1711.03088	716.75793	887.82532	-1685.66113	670.48926	897.65021	-1717.82922	678.07147	829.10907	-1716.83179	731.56567	1502.76941	-1248.98083	707.19489	1321.03174	-1149.39697	724.29822	1175.36279	-1118.36414	775.57892	1066.20703	-1098.08289	852.25513	955.28217	-1113.12817	806.55536	940.29889	-1083.47156	858.63348	890.62854	-1076.45483	829.88348	994.41931	-1554.33081	840.5188	982.57568	-1299.4342	622.91943	1030.43481	-1467.34009	622.60748	1031.92151	-1351.77942	817.49481	686.11823	-1625.75513	835.07025	497.18829	-1608.61267	719.85999	349.32199	-1590.48389	645.21936	140.39148	-1557.8053	620.85327	120.46981	-1496.86292	759.96606	51.83481	-1610.29395	773.95074	670.33051	-1242.37744	774.51794	461.4827	-1291.30969	728.68353	277.66174	-1290.99402	704.94946	87.70573	-1337.30566	670.83441	35.41812	-1395.48389	854.90485	32.1772	-1316.67847	778.24432	1803.26208	-1398.31433	-2845.02832	1033.91528	3360.28467	NaN	NaN	NaN
200	1.99	891.25641	1717.80444	-1467.55945	853.94757	1697.59863	-1329.38062	752.9906	1674.07813	-1509.67627	705.27991	1655.72522	-1374.26355	656.37732	1531.13135	-1433.26807	603.32062	1249.87671	-1411.06995	794.15088	1456.9386	-1445.21509	845.97015	1289.11536	-1432.21277	600.81671	1355.43152	-1354.39893	720.24194	1493.35779	-1613.67957	692.05487	1290.52319	-1688.44983	676.87769	1151.68628	-1694.19214	673.27216	1021.60803	-1710.35852	719.33582	887.94971	-1685.00513	672.78528	897.81769	-1716.52527	680.48718	829.68549	-1716.26917	740.2431	1503.44043	-1248.49719	717.0069	1322.16992	-1147.92505	735.44873	1176.69849	-1116.41321	788.4101	1067.94946	-1096.66443	866.61694	958.42877	-1112.58276	821.61737	942.75922	-1082.33533	874.76318	894.01141	-1075.90808	839.59576	995.51703	-1552.29456	847.50714	982.33484	-1297.25916	631.40302	1031.27087	-1468.45935	629.39276	1032.05017	-1352.99084	829.42133	687.91614	-1625.8335	848.35254	497.90802	-1607.73303	738.98035	344.80618	-1589.9939	673.92175	132.22523	-1558.70825	649.98999	111.36526	-1497.98413	793.1272	49.71977	-1610.96533	778.14056	670.22412	-1242.49109	777.04913	461.26971	-1290.94995	729.13855	277.73181	-1291.12842	705.09192	87.87047	-1337.51428	671.77332	34.8788	-1395.4751	854.81781	32.07415	-1316.47742	787.69385	1803.52356	-1398.17871	-2845.01147	1033.82141	3360.14648	NaN	NaN	NaN
